{
	"asset":{
		"generator":"Khronos glTF Blender I/O v4.2.57",
		"version":"2.0"
	},
	"extensionsUsed":[
		"KHR_lights_punctual"
	],
	"extensionsRequired":[
		"KHR_lights_punctual"
	],
	"extensions":{
		"KHR_lights_punctual":{
			"lights":[
				{
					"color":[
						0.011269078589975834,
						0.07715729624032974,
						1
					],
					"intensity":54351.41306588226,
					"type":"point",
					"name":"Light.002"
				},
				{
					"color":[
						1,
						0,
						0.17493858933448792
					],
					"intensity":543.5141306588226,
					"type":"point",
					"name":"Point.001"
				}
			]
		}
	},
	"scene":0,
	"scenes":[
		{
			"name":"Scene",
			"nodes":[
				4,
				11,
				12,
				13
			]
		}
	],
	"nodes":[
		{
			"extensions":{
				"KHR_lights_punctual":{
					"light":0
				}
			},
			"name":"Light",
			"rotation":[
				-0.28416627645492554,
				0.7269423007965088,
				0.34203392267227173,
				0.5232754945755005
			],
			"translation":[
				3.2462453842163086,
				5.903861999511719,
				-1.0054539442062378
			]
		},
		{
			"children":[
				0
			],
			"mesh":0,
			"name":"Cube"
		},
		{
			"extensions":{
				"KHR_lights_punctual":{
					"light":1
				}
			},
			"name":"Light.001",
			"rotation":[
				-0.4907408058643341,
				-0.0001528455613879487,
				-0.5090909004211426,
				0.7071068286895752
			],
			"translation":[
				5.693395614624023,
				4.449756145477295,
				0.7593495845794678
			]
		},
		{
			"mesh":1,
			"name":"Some Text",
			"translation":[
				0,
				0,
				4.439673900604248
			]
		},
		{
			"children":[
				1,
				2,
				3
			],
			"name":"Collection"
		},
		{
			"name":"Empty",
			"scale":[
				3.9399025440216064,
				1,
				1
			],
			"translation":[
				-9.370648384094238,
				0,
				-0.41728299856185913
			]
		},
		{
			"name":"spawn_point",
			"translation":[
				0,
				0,
				-2.498931884765625
			]
		},
		{
			"name":"spawn_point.001",
			"translation":[
				0,
				0,
				-4.306990623474121
			]
		},
		{
			"name":"spawn_point.002",
			"rotation":[
				0.483536034822464,
				0.33687159419059753,
				-0.20870360732078552,
				0.7804827094078064
			],
			"translation":[
				4.650393009185791,
				3.655759572982788,
				1.9840383529663086
			]
		},
		{
			"name":"spawn_point.003",
			"rotation":[
				0.1529938280582428,
				-0.3600897490978241,
				-0.359873503446579,
				0.84700608253479
			],
			"translation":[
				-0.4669044017791748,
				2.530480146408081,
				3.0311105251312256
			]
		},
		{
			"name":"spawn_point.004",
			"rotation":[
				0,
				-0.9999335408210754,
				0,
				0.011529353447258472
			],
			"translation":[
				-0.048652976751327515,
				0,
				-6.416531085968018
			]
		},
		{
			"children":[
				5,
				6,
				7,
				8,
				9,
				10
			],
			"name":"spawn_points"
		},
		{
			"camera":0,
			"name":"Camera",
			"rotation":[
				-0.0503477081656456,
				-0.633585512638092,
				-0.04137850180268288,
				0.7709230184555054
			],
			"translation":[
				-5.46999979019165,
				0,
				0
			]
		},
		{
			"camera":1,
			"name":"Camera.001",
			"rotation":[
				0.012355110608041286,
				0.7413644194602966,
				-0.16614693403244019,
				0.6500933766365051
			],
			"translation":[
				5.299371242523193,
				-1.4399625062942505,
				-2.126460552215576
			]
		}
	],
	"cameras":[
		{
			"name":"Camera",
			"perspective":{
				"aspectRatio":1.7777777777777777,
				"yfov":0.39959652046304894,
				"zfar":1000,
				"znear":0.10000000149011612
			},
			"type":"perspective"
		},
		{
			"name":"Camera.001",
			"perspective":{
				"aspectRatio":1.7777777777777777,
				"yfov":0.2583259176597645,
				"zfar":1000,
				"znear":0.10000000149011612
			},
			"type":"perspective"
		}
	],
	"materials":[
		{
			"doubleSided":true,
			"name":"Material.002",
			"pbrMetallicRoughness":{
				"baseColorFactor":[
					0.800000011920929,
					0.800000011920929,
					0.800000011920929,
					1
				],
				"metallicFactor":0,
				"roughnessFactor":0.5
			}
		}
	],
	"meshes":[
		{
			"name":"Cube.002",
			"primitives":[
				{
					"attributes":{
						"POSITION":0,
						"NORMAL":1,
						"TEXCOORD_0":2
					},
					"indices":3,
					"material":0
				}
			]
		},
		{
			"name":"Some Text.001",
			"primitives":[
				{
					"attributes":{
						"POSITION":4,
						"NORMAL":5,
						"TEXCOORD_0":6
					},
					"indices":7
				}
			]
		}
	],
	"accessors":[
		{
			"bufferView":0,
			"componentType":5126,
			"count":24,
			"max":[
				1,
				1,
				1
			],
			"min":[
				-1,
				-1,
				-1
			],
			"type":"VEC3"
		},
		{
			"bufferView":1,
			"componentType":5126,
			"count":24,
			"type":"VEC3"
		},
		{
			"bufferView":2,
			"componentType":5126,
			"count":24,
			"type":"VEC2"
		},
		{
			"bufferView":3,
			"componentType":5123,
			"count":36,
			"type":"SCALAR"
		},
		{
			"bufferView":4,
			"componentType":5126,
			"count":177,
			"max":[
				1.915000081062317,
				0,
				0.009000000543892384
			],
			"min":[
				0.017000000923871994,
				0,
				-0.6820000410079956
			],
			"type":"VEC3"
		},
		{
			"bufferView":5,
			"componentType":5126,
			"count":177,
			"type":"VEC3"
		},
		{
			"bufferView":6,
			"componentType":5126,
			"count":177,
			"type":"VEC2"
		},
		{
			"bufferView":7,
			"componentType":5123,
			"count":513,
			"type":"SCALAR"
		}
	],
	"bufferViews":[
		{
			"buffer":0,
			"byteLength":288,
			"byteOffset":0,
			"target":34962
		},
		{
			"buffer":0,
			"byteLength":288,
			"byteOffset":288,
			"target":34962
		},
		{
			"buffer":0,
			"byteLength":192,
			"byteOffset":576,
			"target":34962
		},
		{
			"buffer":0,
			"byteLength":72,
			"byteOffset":768,
			"target":34963
		},
		{
			"buffer":0,
			"byteLength":2124,
			"byteOffset":840,
			"target":34962
		},
		{
			"buffer":0,
			"byteLength":2124,
			"byteOffset":2964,
			"target":34962
		},
		{
			"buffer":0,
			"byteLength":1416,
			"byteOffset":5088,
			"target":34962
		},
		{
			"buffer":0,
			"byteLength":1026,
			"byteOffset":6504,
			"target":34963
		}
	],
	"buffers":[
		{
			"byteLength":7532,
			"uri":"test.bin"
		}
	]
}
